Coordinates
version=1
nRows=32
nColumns=12
inDegrees=yes

Units are S.I. units (second, meters, Newtons, ...)
Angles are in degrees

endheader
time	SC_y	SC_z	SC_x	AC_y	AC_z	AC_x	GH_y	GH_z	GH_yy	EL_x	PS_y
       0.0              -42.76        -0.5696          41.09          34.75         -9.129          10.22         -59.88        -0.3932         -49.46          81.64          116.6
   0.03294              -42.76        -0.5678          41.09          34.75         -9.127          10.22         -59.85        -0.3887         -49.44          81.65          116.6
   0.06588              -42.76        -0.5658          41.08          34.76         -9.124          10.22         -59.83        -0.3839         -49.42          81.66          116.6
   0.09883              -42.76        -0.5637          41.08          34.76         -9.122          10.22         -59.81        -0.3788          -49.4          81.66          116.6
    0.1318              -42.76        -0.5615          41.08          34.77          -9.12          10.22         -59.78        -0.3734         -49.37          81.67          116.6
    0.1647              -42.77        -0.5591          41.07          34.77         -9.117          10.22         -59.75        -0.3676         -49.35          81.68          116.7
    0.1977              -42.77        -0.5566          41.07          34.78         -9.114          10.22         -59.72        -0.3615         -49.32          81.69          116.7
    0.2306              -42.77        -0.5539          41.07          34.78         -9.111          10.22         -59.69        -0.3549         -49.29           81.7          116.7
    0.2635              -42.77         -0.551          41.06          34.79         -9.108          10.22         -59.66        -0.3478         -49.26          81.71          116.7
    0.2965              -42.77        -0.5479          41.06           34.8         -9.105          10.21         -59.62        -0.3402         -49.22          81.72          116.7
    0.3294              -42.77        -0.5445          41.05           34.8         -9.101          10.21         -59.59        -0.3321         -49.19          81.73          116.7
    0.3624              -42.77         -0.541          41.05          34.81         -9.097          10.21         -59.54        -0.3234         -49.15          81.74          116.7
    0.3953              -42.77        -0.5371          41.04          34.82         -9.093          10.21          -59.5        -0.3139          -49.1          81.76          116.7
    0.4283              -42.77        -0.5329          41.04          34.83         -9.088          10.21         -59.45        -0.3037         -49.06          81.77          116.7
    0.4612              -42.77        -0.5284          41.03          34.84         -9.083          10.21          -59.4        -0.2927         -49.01          81.79          116.7
    0.4941              -42.78        -0.5235          41.03          34.85         -9.078          10.21         -59.34        -0.2807         -48.96           81.8          116.7
    0.5271              -42.78        -0.5181          41.02          34.86         -9.072          10.21         -59.28        -0.2677          -48.9          81.82          116.7
      0.56              -42.78        -0.5123          41.01          34.88         -9.066          10.21         -59.21        -0.2536         -48.83          81.84          116.8
     0.593              -42.78         -0.506           41.0          34.89         -9.059          10.21         -59.14        -0.2381         -48.76          81.86          116.8
    0.6259              -42.78         -0.499          40.99          34.91         -9.051           10.2         -59.06        -0.2212         -48.69          81.89          116.8
    0.6588              -42.78        -0.4914          40.98          34.92         -9.043           10.2         -58.97        -0.2026          -48.6          81.91          116.8
    0.6918              -42.79         -0.483          40.97          34.94         -9.033           10.2         -58.87        -0.1821         -48.51          81.94          116.8
    0.7247              -42.79        -0.4737          40.96          34.96         -9.023           10.2         -58.77        -0.1595         -48.41          81.97          116.8
    0.7577              -42.79        -0.4634          40.94          34.99         -9.012           10.2         -58.65        -0.1345          -48.3          82.01          116.9
    0.7906               -42.8         -0.452          40.93          35.01         -8.999          10.19         -58.51        -0.1067         -48.17          82.05          116.9
    0.8236               -42.8        -0.4392          40.91          35.04         -8.985          10.19         -58.37        -0.0756         -48.03          82.09          116.9
    0.8565               -42.8        -0.4249          40.89          35.07         -8.969          10.19          -58.2       -0.04081         -47.88          82.14          116.9
    0.8894              -42.81        -0.4089          40.87          35.11         -8.952          10.18         -58.02       -0.00167          -47.7          82.19          117.0
    0.9224              -42.81        -0.3907          40.84          35.15         -8.932          10.18         -57.81        0.04256          -47.5          82.25          117.0
    0.9553              -42.82        -0.3701          40.81           35.2         -8.909          10.17         -57.57        0.09277         -47.28          82.33          117.0
    0.9883              -42.82        -0.3466          40.78          35.25         -8.883          10.17          -57.3         0.1501         -47.02          82.41          117.1
     1.021              -42.83        -0.3196          40.74          35.31         -8.853          10.16         -56.98         0.2159         -46.72           82.5          117.1
